<?xml version="1.0" encoding="UTF-8" standalone="no"?>
<svg
   data-v-fde0c5aa=""
   viewBox="0 0 220.00082 36.829937"
   class="iconLeft"
   version="1.1"
   id="svg95"
   sodipodi:docname="WebStream-logo_text-min.svg"
   width="220.00082"
   height="36.829937"
   inkscape:version="1.1.1 (3bf5ae0d25, 2021-09-20)"
   xmlns:inkscape="http://www.inkscape.org/namespaces/inkscape"
   xmlns:sodipodi="http://sodipodi.sourceforge.net/DTD/sodipodi-0.dtd"
   xmlns:xlink="http://www.w3.org/1999/xlink"
   xmlns="http://www.w3.org/2000/svg"
   xmlns:svg="http://www.w3.org/2000/svg">
  <sodipodi:namedview
     id="namedview97"
     pagecolor="#505050"
     bordercolor="#eeeeee"
     borderopacity="1"
     inkscape:pageshadow="0"
     inkscape:pageopacity="0"
     inkscape:pagecheckerboard="0"
     showgrid="false"
     fit-margin-top="0"
     fit-margin-left="0"
     fit-margin-right="0"
     fit-margin-bottom="0"
     inkscape:zoom="2.6966667"
     inkscape:cx="-19.283066"
     inkscape:cy="48.02225"
     inkscape:window-width="2560"
     inkscape:window-height="1017"
     inkscape:window-x="1912"
     inkscape:window-y="-8"
     inkscape:window-maximized="1"
     inkscape:current-layer="svg95" />
  <!---->
  <defs
     data-v-fde0c5aa=""
     id="defs69">
    <!---->
    <linearGradient
       inkscape:collect="always"
       xlink:href="#15d2a04f-7170-423c-a632-53fe798c745a"
       id="linearGradient320"
       gradientTransform="scale(2.6207488,0.38157034)"
       x1="0.041972737"
       y1="6.9449842"
       x2="28.503304"
       y2="6.9449842"
       gradientUnits="userSpaceOnUse" />
    <linearGradient
       inkscape:collect="always"
       xlink:href="#15d2a04f-7170-423c-a632-53fe798c745a"
       id="linearGradient322"
       gradientTransform="scale(2.6207488,0.38157034)"
       x1="0.041972737"
       y1="6.9449842"
       x2="28.503304"
       y2="6.9449842"
       gradientUnits="userSpaceOnUse" />
    <linearGradient
       inkscape:collect="always"
       xlink:href="#d8f5adc3-7974-42f7-baed-2ef9aa795c3f"
       id="linearGradient324"
       gradientTransform="scale(1.016179,0.98407858)"
       x1="19.681572"
       y1="23.448331"
       x2="44.603362"
       y2="23.448331"
       gradientUnits="userSpaceOnUse" />
    <linearGradient
       inkscape:collect="always"
       xlink:href="#d8f5adc3-7974-42f7-baed-2ef9aa795c3f"
       id="linearGradient326"
       gradientTransform="scale(1.0214455,0.97900477)"
       x1="14.643826"
       y1="15.914752"
       x2="48.167035"
       y2="15.914752"
       gradientUnits="userSpaceOnUse" />
    <linearGradient
       inkscape:collect="always"
       xlink:href="#d8f5adc3-7974-42f7-baed-2ef9aa795c3f"
       id="linearGradient328"
       gradientTransform="scale(1.0214455,0.97900477)"
       x1="14.643826"
       y1="15.914752"
       x2="48.167035"
       y2="15.914752"
       gradientUnits="userSpaceOnUse" />
  </defs>
  <defs
     data-v-fde0c5aa=""
     id="defs78">
    <linearGradient
       data-v-fde0c5aa=""
       gradientTransform="rotate(25)"
       id="15d2a04f-7170-423c-a632-53fe798c745a"
       x1="0"
       y1="0"
       x2="1"
       y2="0">
      <stop
         data-v-fde0c5aa=""
         offset="0%"
         stop-color="#C2C2C2"
         stop-opacity="1"
         id="stop73" />
      <stop
         data-v-fde0c5aa=""
         offset="100%"
         stop-color="#5BB7D0"
         stop-opacity="1"
         id="stop75" />
    </linearGradient>
  </defs>
  <defs
     data-v-fde0c5aa=""
     id="defs88">
    <linearGradient
       data-v-fde0c5aa=""
       gradientTransform="rotate(25)"
       id="d8f5adc3-7974-42f7-baed-2ef9aa795c3f"
       x1="0"
       y1="0"
       x2="1"
       y2="0">
      <stop
         data-v-fde0c5aa=""
         offset="0%"
         stop-color="#C2C2C2"
         stop-opacity="1"
         id="stop83" />
      <stop
         data-v-fde0c5aa=""
         offset="100%"
         stop-color="#5BB7D0"
         stop-opacity="1"
         id="stop85" />
    </linearGradient>
  </defs>
  <g
     id="g318"
     transform="translate(-40.000941,-131.58512)">
    <g
       data-v-fde0c5aa=""
       id="264c86b2-a754-4eed-a4c9-38d2ed6a53a6"
       fill="url(#15d2a04f-7170-423c-a632-53fe798c745a)"
       transform="matrix(2.2600045,0,0,2.2600045,91.179423,131.73899)"
       style="fill:url(#linearGradient322)">
      <path
         d="m 3.23,11.83 c 0.52,1.68 2.17,1.68 2.17,1.68 0,0 0.19,-0.74 0.41,-1.37 l 1.08,-3 C 6.99,8.85 7.03,8.54 7.03,8.54 H 7.1 c 0.38,1.3 0.68,2.45 0.92,3.29 0.45,1.61 2.17,1.68 2.17,1.68 0,0 0.18,-0.74 0.41,-1.37 l 2.42,-6.72 c 0.5,-1.4 1.04,-1.81 1.04,-1.81 V 3.54 c 0,0 -0.2,-0.15 -0.63,-0.15 -1.25,0 -0.89,0.63 -3.49,8.29 H 9.87 C 9.07,9.53 7.98,5.96 7.63,4.3 7.5,3.7 6.94,3.39 6.45,3.39 c -0.88,0 -1.02,0.18 -1.02,0.18 0,0 1.08,2.41 1.08,3.51 0,0.77 -0.78,3.03 -1.36,4.6 H 5.08 C 4.23,9.53 2.97,5.96 2.56,4.3 2.42,3.7 1.88,3.39 1.39,3.39 c -0.96,0 -1.28,0.18 -1.28,0.18 0,0 0.27,0.36 0.67,1.23 0.72,1.54 1.91,5.27 2.45,7.03 z M 14.22,9.98 c 0,2.06 1.39,3.53 3.27,3.53 2.35,0 2.82,-1.78 2.82,-1.78 l -0.07,-0.07 c 0,0 -1.05,0.8 -2.19,0.8 -1.45,0 -2.23,-1.15 -2.23,-2.83 L 15.88,9.6 c 0,0 0.72,0.4 1.54,0.4 1.23,0 2.7,-0.51 2.7,-1.91 0,-0.95 -0.73,-2 -2.58,-2 -2.04,0 -3.32,1.96 -3.32,3.89 z m 1.61,-1.02 c 0,-0.53 0.54,-2.23 1.53,-2.23 0.8,0 1.09,0.69 1.09,1.35 0,0.87 -0.68,1.22 -1.31,1.22 -0.59,0 -1.31,-0.23 -1.31,-0.34 z m 6.05,3.28 c 0,0.84 1.05,1.27 2.21,1.27 2.79,0 4.12,-1.79 4.12,-4.23 0,-1.78 -0.98,-3.19 -2.58,-3.19 -1.7,0 -2.25,1.11 -2.25,1.11 L 23.34,7.18 c 0,0 0.14,-1.15 0.14,-2.24 0,-1.66 -0.07,-2.28 -1.84,-2.29 L 21.6,2.7 c 0.28,0.28 0.3,2.9 0.3,4.19 0,1.03 0.01,2.13 0.01,3.16 0,0.7 -0.03,1.42 -0.03,2.19 z m 2.41,0.63 c -0.9,0 -0.94,-1.05 -0.94,-2.27 0,-0.66 0,-1.32 0.07,-1.92 0.13,-1.06 0.76,-1.69 1.6,-1.69 0.96,0 1.51,1.33 1.51,2.61 0,1.61 -0.73,3.27 -2.24,3.27 z m 5.25,-0.72 c 0,0.88 2.03,1.36 3.22,1.36 1.76,0 3.6,-1.02 3.6,-2.97 0,-3.22 -5.03,-2.74 -5.03,-4.93 0,-0.89 0.69,-1.56 1.64,-1.56 1.5,0 2.44,1.44 2.44,1.44 h 0.09 c 0.33,-0.32 0.55,-0.79 0.55,-1.14 0,-0.78 -2.03,-1.06 -2.79,-1.06 -1.76,0 -3.5,1.02 -3.5,2.87 0,3.07 5.03,2.77 5.03,4.98 0,0.76 -0.46,1.49 -1.83,1.49 -1.88,0 -2.99,-1.3 -2.99,-1.3 h -0.09 c -0.13,0.22 -0.34,0.57 -0.34,0.82 z m 8.72,-1.36 c 0,1.57 0.48,2.72 2.12,2.72 1.7,0 2.17,-1.61 2.17,-1.61 l -0.07,-0.06 c 0,0 -0.8,0.66 -1.49,0.66 -1.08,0 -1.2,-1.17 -1.2,-2.56 0,-1.06 0.04,-2.72 0.04,-2.72 0,0 0.98,0.03 1.13,0.03 0.51,0 0.79,-0.12 0.79,-0.71 0,-0.07 0,-0.3 -0.02,-0.38 0,0 -0.18,0.14 -0.75,0.14 H 39.83 L 40.11,4.77 39.79,4.66 C 39.61,5.12 38.28,6.3 37.67,6.3 v 0.59 c 0.55,0.17 0.65,0.22 0.65,1.41 0,0.53 -0.06,1.58 -0.06,2.49 z m 5.42,1.57 c 0,0.87 0.36,1.08 0.88,1.08 0.3,0 0.63,-0.08 0.98,-0.14 -0.03,-0.01 -0.32,-0.52 -0.32,-3.28 0,-1.55 0.31,-2.68 1.4,-2.68 0.32,0 0.67,0.16 1.12,0.39 L 47.81,7.7 c 0.11,-0.29 0.17,-0.69 0.17,-0.99 0,-0.31 -0.14,-0.55 -0.69,-0.55 -0.75,0 -1.72,0.55 -2.11,1.43 L 45.12,7.57 c 0,0 0.1,-0.3 0.1,-0.51 0,-0.58 -0.49,-0.9 -1.13,-0.9 -0.23,0 -0.45,0.06 -0.69,0.13 0.06,0.05 0.35,0.79 0.35,3.64 0,0.77 -0.07,1.59 -0.07,2.43 z m 5.01,-2.38 c 0,2.06 1.39,3.53 3.26,3.53 2.36,0 2.83,-1.78 2.83,-1.78 l -0.07,-0.07 c 0,0 -1.05,0.8 -2.2,0.8 -1.44,0 -2.22,-1.15 -2.22,-2.83 L 50.34,9.6 c 0,0 0.73,0.4 1.54,0.4 1.24,0 2.71,-0.51 2.71,-1.91 0,-0.95 -0.73,-2 -2.58,-2 -2.04,0 -3.32,1.96 -3.32,3.89 z M 50.3,8.96 c 0,-0.53 0.53,-2.23 1.53,-2.23 0.8,0 1.09,0.69 1.09,1.35 0,0.87 -0.69,1.22 -1.32,1.22 -0.58,0 -1.3,-0.23 -1.3,-0.34 z m 5.49,2.67 c 0,1.03 0.69,1.88 1.86,1.88 0.88,0 1.58,-0.49 1.91,-1.08 l 0.05,0.03 c 0.02,0.74 0.62,0.98 1.19,0.98 1.21,0 1.56,-0.87 1.56,-0.87 L 62.3,12.53 c 0,0 -0.25,0.2 -0.53,0.2 -0.69,0 -0.7,-1.01 -0.7,-1.56 V 11 c 0,-0.77 0.04,-1.7 0.04,-2.45 0,-1.27 -0.27,-2.46 -2.25,-2.46 -1.24,0 -2.37,0.87 -2.59,1.71 l 0.05,0.05 c 0.52,-0.46 1.25,-0.84 1.93,-0.84 1.08,0 1.35,0.66 1.35,1.84 V 8.97 C 58.07,9 55.79,9.6 55.79,11.63 Z m 1.58,-0.26 c 0,-1.49 1.65,-1.74 2.23,-1.84 0,0.72 -0.04,1.46 -0.04,2.02 0,0.53 -0.77,0.97 -1.25,0.97 -0.49,0 -0.94,-0.31 -0.94,-1.15 z m 5.94,1.93 c 0.33,0.07 0.7,0.14 0.99,0.14 0.49,0 0.88,-0.2 0.88,-0.95 0,-1.33 -0.05,-2.28 -0.05,-3.54 0,-1.28 0.81,-1.94 1.4,-1.94 1.2,0 1.23,0.9 1.23,1.82 0,1.43 -0.04,2.33 -0.04,3.53 0,0.97 0.52,1.01 1.02,1.08 0.22,-0.25 0.55,-0.46 0.55,-1.46 0,-0.08 -0.03,-2.47 -0.03,-2.5 0,-0.67 0.21,-2.47 1.48,-2.47 1.16,0 1.19,0.9 1.19,1.82 0,1.43 -0.04,2.27 -0.04,3.48 0,0.84 0.64,1.13 1.26,1.13 1.2,0 1.55,-0.87 1.55,-0.87 l -0.05,-0.04 c 0,0 -0.25,0.2 -0.53,0.2 -0.69,0 -0.7,-0.84 -0.7,-1.47 0,-1.21 0.05,-2.13 0.05,-3.15 0,-0.98 -0.19,-1.95 -2.04,-1.95 -0.9,0 -1.91,0.45 -2.21,1.13 L 69.16,7.28 C 69.1,6.66 68.57,6.16 67.26,6.16 c -0.9,0 -1.91,0.45 -2.17,1.13 L 65.03,7.28 c 0,0 0.06,-0.17 0.06,-0.35 0,-0.43 -0.45,-0.77 -1.1,-0.77 -0.22,0 -0.44,0.06 -0.68,0.13 0,0 0.21,0.12 0.28,1.48 0.03,0.67 0.05,1.4 0.05,2.1 0,2.51 -0.23,3.39 -0.33,3.43 z"
         id="path80"
         style="fill:url(#linearGradient320)" />
    </g>
    <g
       data-v-fde0c5aa=""
       id="5a6f58ce-f8ba-4aa4-88b8-e16bb62a2763"
       stroke="none"
       fill="url(#d8f5adc3-7974-42f7-baed-2ef9aa795c3f)"
       transform="matrix(1.1222008,0,0,1.1222008,23.215207,114.10053)"
       style="fill:url(#linearGradient328)">
      <path
         d="m 34.2,47.6 c -4,0 -7.8,-1.6 -10.6,-4.4 -4.8,-4.8 -4.8,-12.5 0,-17.2 3.9,-3.9 10.1,-3.9 14,0 1.5,1.5 2.4,3.6 2.4,5.7 0,2.1 -0.8,4.2 -2.4,5.7 -1.2,1.2 -2.9,1.9 -4.7,1.9 -1.8,0 -3.4,-0.7 -4.7,-1.9 -2.1,-2.1 -2.1,-5.6 0,-7.7 0.9,-0.9 2,-1.3 3.2,-1.3 1.2,0 2.3,0.5 3.2,1.3 0.7,0.7 1.1,1.7 1.1,2.7 0,1 -0.4,1.9 -1.1,2.7 -0.6,0.5 -1.4,0.9 -2.2,0.9 -0.8,0 -1.6,-0.3 -2.2,-0.9 -0.3,-0.3 -0.3,-0.8 0,-1.1 0.3,-0.3 0.8,-0.3 1.1,0 0.3,0.3 0.7,0.5 1.2,0.5 0.4,0 0.9,-0.2 1.2,-0.5 0.4,-0.4 0.7,-1 0.7,-1.6 0,-0.6 -0.2,-1.2 -0.7,-1.6 -0.6,-0.6 -1.3,-0.9 -2.1,-0.9 -0.8,0 -1.5,0.3 -2.1,0.9 -1.5,1.5 -1.5,4 0,5.6 1,1 2.2,1.5 3.6,1.5 1.4,0 2.6,-0.5 3.6,-1.5 1.2,-1.2 1.9,-2.9 1.9,-4.6 0,-1.7 -0.7,-3.4 -1.9,-4.6 a 8.39,8.39 0 0 0 -11.9,0 c -4.2,4.2 -4.2,10.9 0,15.1 2.6,2.6 6,4 9.6,4 3.6,0 7,-1.4 9.6,-4 0.3,-0.3 0.8,-0.3 1.1,0 0.3,0.3 0.3,0.8 0,1.1 -3.1,2.7 -6.9,4.2 -10.9,4.2 z"
         id="path90"
         style="fill:url(#linearGradient324)" />
      <path
         d="m 33.4,43.1 c -0.6,0 -1.3,-0.1 -2,-0.2 C 31,42.8 30.7,42.4 30.8,42 30.9,41.6 31.3,41.3 31.7,41.4 37.5,42.3 43,38.4 44,32.6 45.2,25.2 40.2,18.3 32.8,17.1 32.4,17 32.1,16.6 32.2,16.2 c 0.1,-0.4 0.5,-0.7 0.9,-0.6 8.2,1.3 13.8,9.1 12.4,17.3 -1.1,6 -6.2,10.2 -12.1,10.2 z m 12.8,-2 c -0.1,0 -0.3,0 -0.4,-0.1 -0.4,-0.2 -0.5,-0.7 -0.2,-1 0.2,-0.4 0.5,-0.8 0.7,-1.2 l 0.6,-1.5 c 0.1,-0.4 0.6,-0.6 1,-0.5 0.4,0.1 0.6,0.6 0.5,1 -0.2,0.6 -0.4,1.1 -0.7,1.6 -0.2,0.5 -0.5,0.9 -0.8,1.4 -0.2,0.2 -0.5,0.3 -0.7,0.3 z m 2,-5.5 h -0.1 c -0.4,-0.1 -0.7,-0.4 -0.6,-0.9 0.1,-0.6 0.1,-1.2 0.1,-1.9 0,-0.4 0.3,-0.8 0.8,-0.8 0.4,0 0.8,0.3 0.8,0.8 0,0.7 0,1.4 -0.1,2.1 -0.2,0.5 -0.6,0.7 -0.9,0.7 z M 26.4,18.2 c -0.3,0 -0.6,-0.2 -0.7,-0.4 -0.2,-0.4 0,-0.8 0.4,-1 1.1,-0.5 2.2,-0.8 3.3,-1 0.4,-0.1 0.8,0.2 0.9,0.6 0.1,0.4 -0.2,0.8 -0.6,0.9 -1,0.2 -2,0.5 -3,0.9 -0.1,-0.1 -0.2,0 -0.3,0 z m -3.9,2.6 c -0.2,0 -0.4,-0.1 -0.5,-0.2 -0.3,-0.3 -0.3,-0.8 0,-1.1 0.6,-0.6 1.2,-1.1 1.8,-1.5 0.3,-0.2 0.8,-0.2 1.1,0.2 0.2,0.3 0.2,0.8 -0.2,1.1 -0.6,0.4 -1.1,0.9 -1.6,1.4 -0.2,0 -0.4,0.1 -0.6,0.1 z M 16.2,40.2 C 15.9,40.2 15.6,40 15.5,39.6 13.3,31.4 18,23 25.9,20.9 c 0.4,-0.1 0.8,0.1 0.9,0.5 0.1,0.4 -0.1,0.8 -0.5,0.9 -7.1,1.9 -11.3,9.5 -9.4,16.9 0.1,0.4 -0.1,0.8 -0.5,0.9 -0.1,0.1 -0.2,0.1 -0.2,0.1 z m 3.5,5.6 c -0.2,0 -0.4,-0.1 -0.5,-0.2 -0.9,-0.8 -1.6,-1.7 -2.3,-2.7 -0.2,-0.4 -0.1,-0.8 0.2,-1 0.4,-0.2 0.8,-0.1 1,0.2 0.6,0.9 1.2,1.7 2,2.4 0.3,0.3 0.3,0.8 0,1.1 0,0.2 -0.2,0.2 -0.4,0.2 z m 3.9,2.6 c -0.1,0 -0.2,0 -0.3,-0.1 -0.7,-0.3 -1.4,-0.7 -2.1,-1.1 -0.4,-0.2 -0.5,-0.7 -0.2,-1 0.2,-0.4 0.7,-0.5 1,-0.2 0.6,0.4 1.2,0.7 1.9,1 0.4,0.2 0.6,0.6 0.4,1 -0.1,0.2 -0.4,0.4 -0.7,0.4 z"
         id="path92"
         style="fill:url(#linearGradient326)" />
    </g>
  </g>
  <!---->
</svg>
