<?xml version="1.0" encoding="UTF-8" standalone="no"?>
<svg
   data-v-fde0c5aa=""
   viewBox="0 0 300 300"
   class="iconAbove"
   version="1.1"
   id="svg65"
   sodipodi:docname="WebStream-logo-min.svg"
   inkscape:version="1.1.1 (3bf5ae0d25, 2021-09-20)"
   xmlns:inkscape="http://www.inkscape.org/namespaces/inkscape"
   xmlns:sodipodi="http://sodipodi.sourceforge.net/DTD/sodipodi-0.dtd"
   xmlns:xlink="http://www.w3.org/1999/xlink"
   xmlns="http://www.w3.org/2000/svg"
   xmlns:svg="http://www.w3.org/2000/svg">
  <sodipodi:namedview
     id="namedview67"
     pagecolor="#505050"
     bordercolor="#eeeeee"
     borderopacity="1"
     inkscape:pageshadow="0"
     inkscape:pageopacity="0"
     inkscape:pagecheckerboard="0"
     showgrid="false"
     inkscape:zoom="1.9068313"
     inkscape:cx="150.51148"
     inkscape:cy="130.84535"
     inkscape:window-width="2560"
     inkscape:window-height="1017"
     inkscape:window-x="1912"
     inkscape:window-y="-8"
     inkscape:window-maximized="1"
     inkscape:current-layer="svg65" />
  <!---->
  <defs
     data-v-fde0c5aa=""
     id="defs39">
    <!---->
    <linearGradient
       inkscape:collect="always"
       xlink:href="#9ea7880e-394f-456b-8281-2af137288e8a"
       id="linearGradient315"
       gradientTransform="scale(1.016179,0.98407858)"
       x1="19.681572"
       y1="23.448331"
       x2="44.603362"
       y2="23.448331"
       gradientUnits="userSpaceOnUse" />
    <linearGradient
       inkscape:collect="always"
       xlink:href="#9ea7880e-394f-456b-8281-2af137288e8a"
       id="linearGradient317"
       gradientTransform="scale(1.0214455,0.97900477)"
       x1="14.643826"
       y1="15.914752"
       x2="48.167035"
       y2="15.914752"
       gradientUnits="userSpaceOnUse" />
    <linearGradient
       inkscape:collect="always"
       xlink:href="#9ea7880e-394f-456b-8281-2af137288e8a"
       id="linearGradient319"
       gradientTransform="scale(1.0214455,0.97900477)"
       x1="14.643826"
       y1="15.914752"
       x2="48.167035"
       y2="15.914752"
       gradientUnits="userSpaceOnUse" />
  </defs>
  <defs
     data-v-fde0c5aa=""
     id="defs48">
    <linearGradient
       data-v-fde0c5aa=""
       gradientTransform="rotate(25)"
       id="9716aaba-4430-45c5-8516-09e4dec81183"
       x1="0%"
       y1="0%"
       x2="100%"
       y2="0%">
      <stop
         data-v-fde0c5aa=""
         offset="0%"
         stop-color="#C2C2C2"
         stop-opacity="1"
         id="stop43" />
      <stop
         data-v-fde0c5aa=""
         offset="100%"
         stop-color="#5BB7D0"
         stop-opacity="1"
         id="stop45" />
    </linearGradient>
  </defs>
  <defs
     data-v-fde0c5aa=""
     id="defs58">
    <linearGradient
       data-v-fde0c5aa=""
       gradientTransform="rotate(25)"
       id="9ea7880e-394f-456b-8281-2af137288e8a"
       x1="0%"
       y1="0%"
       x2="100%"
       y2="0%">
      <stop
         data-v-fde0c5aa=""
         offset="0%"
         stop-color="#C2C2C2"
         stop-opacity="1"
         id="stop53" />
      <stop
         data-v-fde0c5aa=""
         offset="100%"
         stop-color="#5BB7D0"
         stop-opacity="1"
         id="stop55" />
    </linearGradient>
  </defs>
  <!---->
  <g
     id="g324"
     transform="matrix(1.1210033,0,0,1.1210033,261.79137,-24.556088)">
    <g
       data-v-fde0c5aa=""
       id="6ded1445-e041-4ca9-a4a2-1e63757a8f60"
       stroke="none"
       fill="url(#9ea7880e-394f-456b-8281-2af137288e8a)"
       transform="matrix(7.6592842,0,0,7.6592842,-345.42607,-89.30871)"
       style="fill:url(#linearGradient319)">
      <path
         d="m 34.2,47.6 c -4,0 -7.8,-1.6 -10.6,-4.4 -4.8,-4.8 -4.8,-12.5 0,-17.2 3.9,-3.9 10.1,-3.9 14,0 1.5,1.5 2.4,3.6 2.4,5.7 0,2.1 -0.8,4.2 -2.4,5.7 -1.2,1.2 -2.9,1.9 -4.7,1.9 -1.8,0 -3.4,-0.7 -4.7,-1.9 -2.1,-2.1 -2.1,-5.6 0,-7.7 0.9,-0.9 2,-1.3 3.2,-1.3 1.2,0 2.3,0.5 3.2,1.3 0.7,0.7 1.1,1.7 1.1,2.7 0,1 -0.4,1.9 -1.1,2.7 -0.6,0.5 -1.4,0.9 -2.2,0.9 -0.8,0 -1.6,-0.3 -2.2,-0.9 -0.3,-0.3 -0.3,-0.8 0,-1.1 0.3,-0.3 0.8,-0.3 1.1,0 0.3,0.3 0.7,0.5 1.2,0.5 0.4,0 0.9,-0.2 1.2,-0.5 0.4,-0.4 0.7,-1 0.7,-1.6 0,-0.6 -0.2,-1.2 -0.7,-1.6 -0.6,-0.6 -1.3,-0.9 -2.1,-0.9 -0.8,0 -1.5,0.3 -2.1,0.9 -1.5,1.5 -1.5,4 0,5.6 1,1 2.2,1.5 3.6,1.5 1.4,0 2.6,-0.5 3.6,-1.5 1.2,-1.2 1.9,-2.9 1.9,-4.6 0,-1.7 -0.7,-3.4 -1.9,-4.6 a 8.39,8.39 0 0 0 -11.9,0 c -4.2,4.2 -4.2,10.9 0,15.1 2.6,2.6 6,4 9.6,4 3.6,0 7,-1.4 9.6,-4 0.3,-0.3 0.8,-0.3 1.1,0 0.3,0.3 0.3,0.8 0,1.1 -3.1,2.7 -6.9,4.2 -10.9,4.2 z"
         id="path60"
         style="fill:url(#linearGradient315)" />
      <path
         d="m 33.4,43.1 c -0.6,0 -1.3,-0.1 -2,-0.2 C 31,42.8 30.7,42.4 30.8,42 30.9,41.6 31.3,41.3 31.7,41.4 37.5,42.3 43,38.4 44,32.6 45.2,25.2 40.2,18.3 32.8,17.1 32.4,17 32.1,16.6 32.2,16.2 c 0.1,-0.4 0.5,-0.7 0.9,-0.6 8.2,1.3 13.8,9.1 12.4,17.3 -1.1,6 -6.2,10.2 -12.1,10.2 z m 12.8,-2 c -0.1,0 -0.3,0 -0.4,-0.1 -0.4,-0.2 -0.5,-0.7 -0.2,-1 0.2,-0.4 0.5,-0.8 0.7,-1.2 l 0.6,-1.5 c 0.1,-0.4 0.6,-0.6 1,-0.5 0.4,0.1 0.6,0.6 0.5,1 -0.2,0.6 -0.4,1.1 -0.7,1.6 -0.2,0.5 -0.5,0.9 -0.8,1.4 -0.2,0.2 -0.5,0.3 -0.7,0.3 z m 2,-5.5 h -0.1 c -0.4,-0.1 -0.7,-0.4 -0.6,-0.9 0.1,-0.6 0.1,-1.2 0.1,-1.9 0,-0.4 0.3,-0.8 0.8,-0.8 0.4,0 0.8,0.3 0.8,0.8 0,0.7 0,1.4 -0.1,2.1 -0.2,0.5 -0.6,0.7 -0.9,0.7 z M 26.4,18.2 c -0.3,0 -0.6,-0.2 -0.7,-0.4 -0.2,-0.4 0,-0.8 0.4,-1 1.1,-0.5 2.2,-0.8 3.3,-1 0.4,-0.1 0.8,0.2 0.9,0.6 0.1,0.4 -0.2,0.8 -0.6,0.9 -1,0.2 -2,0.5 -3,0.9 -0.1,-0.1 -0.2,0 -0.3,0 z m -3.9,2.6 c -0.2,0 -0.4,-0.1 -0.5,-0.2 -0.3,-0.3 -0.3,-0.8 0,-1.1 0.6,-0.6 1.2,-1.1 1.8,-1.5 0.3,-0.2 0.8,-0.2 1.1,0.2 0.2,0.3 0.2,0.8 -0.2,1.1 -0.6,0.4 -1.1,0.9 -1.6,1.4 -0.2,0 -0.4,0.1 -0.6,0.1 z M 16.2,40.2 C 15.9,40.2 15.6,40 15.5,39.6 13.3,31.4 18,23 25.9,20.9 c 0.4,-0.1 0.8,0.1 0.9,0.5 0.1,0.4 -0.1,0.8 -0.5,0.9 -7.1,1.9 -11.3,9.5 -9.4,16.9 0.1,0.4 -0.1,0.8 -0.5,0.9 -0.1,0.1 -0.2,0.1 -0.2,0.1 z m 3.5,5.6 c -0.2,0 -0.4,-0.1 -0.5,-0.2 -0.9,-0.8 -1.6,-1.7 -2.3,-2.7 -0.2,-0.4 -0.1,-0.8 0.2,-1 0.4,-0.2 0.8,-0.1 1,0.2 0.6,0.9 1.2,1.7 2,2.4 0.3,0.3 0.3,0.8 0,1.1 0,0.2 -0.2,0.2 -0.4,0.2 z m 3.9,2.6 c -0.1,0 -0.2,0 -0.3,-0.1 -0.7,-0.3 -1.4,-0.7 -2.1,-1.1 -0.4,-0.2 -0.5,-0.7 -0.2,-1 0.2,-0.4 0.7,-0.5 1,-0.2 0.6,0.4 1.2,0.7 1.9,1 0.4,0.2 0.6,0.6 0.4,1 -0.1,0.2 -0.4,0.4 -0.7,0.4 z"
         id="path62"
         style="fill:url(#linearGradient317)" />
    </g>
  </g>
</svg>
