<svg data-v-423bf9ae="" xmlns="http://www.w3.org/2000/svg" viewBox="0 0 411.9741100323625 60" class="font"><!----><!----><defs data-v-423bf9ae=""><linearGradient data-v-423bf9ae="" gradientTransform="rotate(25)" id="268edb28-fd9e-46fc-a854-29a849689b76" x1="0%" y1="0%" x2="100%" y2="0%"><stop data-v-423bf9ae="" offset="0%" style="stop-color: rgb(194, 194, 194); stop-opacity: 1;"></stop><stop data-v-423bf9ae="" offset="100%" style="stop-color: rgb(91, 183, 208); stop-opacity: 1;"></stop></linearGradient></defs><g data-v-423bf9ae="" id="e13425b3-9207-4693-91a2-d11ff7a577e2" fill="url(#268edb28-fd9e-46fc-a854-29a849689b76)" transform="matrix(5.523192882537842,0,0,5.523192882537842,-0.6040857434272766,-14.627829551696777)"><path d="M3.23 11.83C3.75 13.51 5.40 13.51 5.40 13.51C5.40 13.51 5.59 12.77 5.81 12.14L6.89 9.14C6.99 8.85 7.03 8.54 7.03 8.54L7.10 8.54C7.48 9.84 7.78 10.99 8.02 11.83C8.47 13.44 10.19 13.51 10.19 13.51C10.19 13.51 10.37 12.77 10.60 12.14L13.02 5.42C13.52 4.02 14.06 3.61 14.06 3.61L14.06 3.54C14.06 3.54 13.86 3.39 13.43 3.39C12.18 3.39 12.54 4.02 9.94 11.68L9.87 11.68C9.07 9.53 7.98 5.96 7.63 4.30C7.50 3.70 6.94 3.39 6.45 3.39C5.57 3.39 5.43 3.57 5.43 3.57C5.43 3.57 6.51 5.98 6.51 7.08C6.51 7.85 5.73 10.11 5.15 11.68L5.08 11.68C4.23 9.53 2.97 5.96 2.56 4.30C2.42 3.70 1.88 3.39 1.39 3.39C0.43 3.39 0.11 3.57 0.11 3.57C0.11 3.57 0.38 3.93 0.78 4.80C1.50 6.34 2.69 10.07 3.23 11.83ZM14.22 9.98C14.22 12.04 15.61 13.51 17.49 13.51C19.84 13.51 20.31 11.73 20.31 11.73L20.24 11.66C20.24 11.66 19.19 12.46 18.05 12.46C16.60 12.46 15.82 11.31 15.82 9.63L15.88 9.60C15.88 9.60 16.60 10.00 17.42 10.00C18.65 10.00 20.12 9.49 20.12 8.09C20.12 7.14 19.39 6.09 17.54 6.09C15.50 6.09 14.22 8.05 14.22 9.98ZM15.83 8.96C15.83 8.43 16.37 6.73 17.36 6.73C18.16 6.73 18.45 7.42 18.45 8.08C18.45 8.95 17.77 9.30 17.14 9.30C16.55 9.30 15.83 9.07 15.83 8.96ZM21.88 12.24C21.88 13.08 22.93 13.51 24.09 13.51C26.88 13.51 28.21 11.72 28.21 9.28C28.21 7.50 27.23 6.09 25.63 6.09C23.93 6.09 23.38 7.20 23.38 7.20L23.34 7.18C23.34 7.18 23.48 6.03 23.48 4.94C23.48 3.28 23.41 2.66 21.64 2.65L21.60 2.70C21.88 2.98 21.90 5.60 21.90 6.89C21.90 7.92 21.91 9.02 21.91 10.05C21.91 10.75 21.88 11.47 21.88 12.24ZM24.29 12.87C23.39 12.87 23.35 11.82 23.35 10.60C23.35 9.94 23.35 9.28 23.42 8.68C23.55 7.62 24.18 6.99 25.02 6.99C25.98 6.99 26.53 8.32 26.53 9.60C26.53 11.21 25.80 12.87 24.29 12.87ZM29.54 12.15C29.54 13.03 31.57 13.51 32.76 13.51C34.52 13.51 36.36 12.49 36.36 10.54C36.36 7.32 31.33 7.80 31.33 5.61C31.33 4.72 32.02 4.05 32.97 4.05C34.47 4.05 35.41 5.49 35.41 5.49L35.50 5.49C35.83 5.17 36.05 4.70 36.05 4.35C36.05 3.57 34.02 3.29 33.26 3.29C31.50 3.29 29.76 4.31 29.76 6.16C29.76 9.23 34.79 8.93 34.79 11.14C34.79 11.90 34.33 12.63 32.96 12.63C31.08 12.63 29.97 11.33 29.97 11.33L29.88 11.33C29.75 11.55 29.54 11.90 29.54 12.15ZM38.26 10.79C38.26 12.36 38.74 13.51 40.38 13.51C42.08 13.51 42.55 11.90 42.55 11.90L42.48 11.84C42.48 11.84 41.68 12.50 40.99 12.50C39.91 12.50 39.79 11.33 39.79 9.94C39.79 8.88 39.83 7.22 39.83 7.22C39.83 7.22 40.81 7.25 40.96 7.25C41.47 7.25 41.75 7.13 41.75 6.54C41.75 6.47 41.75 6.24 41.73 6.16C41.73 6.16 41.55 6.30 40.98 6.30L39.83 6.30L40.11 4.77L39.79 4.66C39.61 5.12 38.28 6.30 37.67 6.30L37.67 6.89C38.22 7.06 38.32 7.11 38.32 8.30C38.32 8.83 38.26 9.88 38.26 10.79ZM43.68 12.36C43.68 13.23 44.04 13.44 44.56 13.44C44.86 13.44 45.19 13.36 45.54 13.30C45.51 13.29 45.22 12.78 45.22 10.02C45.22 8.47 45.53 7.34 46.62 7.34C46.94 7.34 47.29 7.50 47.74 7.73L47.81 7.70C47.92 7.41 47.98 7.01 47.98 6.71C47.98 6.40 47.84 6.16 47.29 6.16C46.54 6.16 45.57 6.71 45.18 7.59L45.12 7.57C45.12 7.57 45.22 7.27 45.22 7.06C45.22 6.48 44.73 6.16 44.09 6.16C43.86 6.16 43.64 6.22 43.40 6.29C43.46 6.34 43.75 7.08 43.75 9.93C43.75 10.70 43.68 11.52 43.68 12.36ZM48.69 9.98C48.69 12.04 50.08 13.51 51.95 13.51C54.31 13.51 54.78 11.73 54.78 11.73L54.71 11.66C54.71 11.66 53.66 12.46 52.51 12.46C51.07 12.46 50.29 11.31 50.29 9.63L50.34 9.60C50.34 9.60 51.07 10.00 51.88 10.00C53.12 10.00 54.59 9.49 54.59 8.09C54.59 7.14 53.86 6.09 52.01 6.09C49.97 6.09 48.69 8.05 48.69 9.98ZM50.30 8.96C50.30 8.43 50.83 6.73 51.83 6.73C52.63 6.73 52.92 7.42 52.92 8.08C52.92 8.95 52.23 9.30 51.60 9.30C51.02 9.30 50.30 9.07 50.30 8.96ZM55.79 11.63C55.79 12.66 56.48 13.51 57.65 13.51C58.53 13.51 59.23 13.02 59.56 12.43L59.61 12.46C59.63 13.20 60.23 13.44 60.80 13.44C62.01 13.44 62.36 12.57 62.36 12.57L62.30 12.53C62.30 12.53 62.05 12.73 61.77 12.73C61.08 12.73 61.07 11.72 61.07 11.17L61.07 11.00C61.07 10.23 61.11 9.30 61.11 8.55C61.11 7.28 60.84 6.09 58.86 6.09C57.62 6.09 56.49 6.96 56.27 7.80L56.32 7.85C56.84 7.39 57.57 7.01 58.25 7.01C59.33 7.01 59.60 7.67 59.60 8.85L59.60 8.97C58.07 9.00 55.79 9.60 55.79 11.63ZM57.37 11.37C57.37 9.88 59.02 9.63 59.60 9.53C59.60 10.25 59.56 10.99 59.56 11.55C59.56 12.08 58.79 12.52 58.31 12.52C57.82 12.52 57.37 12.21 57.37 11.37ZM63.31 13.30C63.64 13.37 64.01 13.44 64.30 13.44C64.79 13.44 65.18 13.24 65.18 12.49C65.18 11.16 65.13 10.21 65.13 8.95C65.13 7.67 65.94 7.01 66.53 7.01C67.73 7.01 67.76 7.91 67.76 8.83C67.76 10.26 67.72 11.16 67.72 12.36C67.72 13.33 68.24 13.37 68.74 13.44C68.96 13.19 69.29 12.98 69.29 11.98C69.29 11.90 69.26 9.51 69.26 9.48C69.26 8.81 69.47 7.01 70.74 7.01C71.90 7.01 71.93 7.91 71.93 8.83C71.93 10.26 71.89 11.10 71.89 12.31C71.89 13.15 72.53 13.44 73.15 13.44C74.35 13.44 74.70 12.57 74.70 12.57L74.65 12.53C74.65 12.53 74.40 12.73 74.12 12.73C73.43 12.73 73.42 11.89 73.42 11.26C73.42 10.05 73.47 9.13 73.47 8.11C73.47 7.13 73.28 6.16 71.43 6.16C70.53 6.16 69.52 6.61 69.22 7.29L69.16 7.28C69.10 6.66 68.57 6.16 67.26 6.16C66.36 6.16 65.35 6.61 65.09 7.29L65.03 7.28C65.03 7.28 65.09 7.11 65.09 6.93C65.09 6.50 64.64 6.16 63.99 6.16C63.77 6.16 63.55 6.22 63.31 6.29C63.31 6.29 63.52 6.41 63.59 7.77C63.62 8.44 63.64 9.17 63.64 9.87C63.64 12.38 63.41 13.26 63.31 13.30Z"></path></g><!----><!----></svg>